<?xml version="1.0" encoding="UTF-8" standalone="no"?>
<svg
   xmlns:dc="http://purl.org/dc/elements/1.1/"
   xmlns:cc="http://creativecommons.org/ns#"
   xmlns:rdf="http://www.w3.org/1999/02/22-rdf-syntax-ns#"
   xmlns:svg="http://www.w3.org/2000/svg"
   xmlns="http://www.w3.org/2000/svg"
   xmlns:sodipodi="http://sodipodi.sourceforge.net/DTD/sodipodi-0.dtd"
   xmlns:inkscape="http://www.inkscape.org/namespaces/inkscape"
   width="210mm"
   height="297mm"
   viewBox="0 0 210 297"
   version="1.1"
   id="svg8"
   inkscape:version="1.0.1 (3bc2e813f5, 2020-09-07)"
   sodipodi:docname="vectors.svg">
  <defs
     id="defs2" />
  <sodipodi:namedview
     id="base"
     pagecolor="#ffffff"
     bordercolor="#666666"
     borderopacity="1.0"
     inkscape:pageopacity="0.0"
     inkscape:pageshadow="2"
     inkscape:zoom="0.98994949"
     inkscape:cx="441.35126"
     inkscape:cy="921.48135"
     inkscape:document-units="mm"
     inkscape:current-layer="layer1"
     inkscape:document-rotation="0"
     showgrid="false"
     inkscape:window-width="1848"
     inkscape:window-height="1016"
     inkscape:window-x="72"
     inkscape:window-y="27"
     inkscape:window-maximized="1" />
  <metadata
     id="metadata5">
    <rdf:RDF>
      <cc:Work
         rdf:about="">
        <dc:format>image/svg+xml</dc:format>
        <dc:type
           rdf:resource="http://purl.org/dc/dcmitype/StillImage" />
        <dc:title></dc:title>
      </cc:Work>
    </rdf:RDF>
  </metadata>
  <g
     inkscape:label="Layer 1"
     inkscape:groupmode="layer"
     id="layer1">
    <path
       id="rect10"
       style="fill:#0000ff;fill-opacity:1;stroke-width:1.05715"
       d="M 16.024914,39.515652 229.14402,26.785819 c 5.66644,-0.338463 10.25459,3.80376 10.25459,8.528608 V 89.42797 c 0,4.724849 -4.58815,8.190145 -10.25459,8.528608 L 16.024914,110.68641 C 10.358464,111.02487 5.7703137,106.88265 5.7703137,102.1578 V 48.04426 c 0,-4.724849 4.5881503,-8.190144 10.2546003,-8.528608 z"
       sodipodi:nodetypes="sssssssss"
       inkscape:export-xdpi="19.049999"
       inkscape:export-ydpi="19.049999" />
    <path
       id="path865"
       style="fill:#ffdb00;fill-opacity:1;stroke-width:0.852195"
       d="m 46.744784,45.690877 c -0.4385,-0.0055 -0.87665,0.02312 -1.31158,0.07989 -0.37307,0.05943 -0.7426,0.136105 -1.10652,0.238348 -0.18544,0.05536 -0.37019,0.112004 -0.55159,0.179759 -0.31231,0.108481 -0.63597,0.182865 -0.95074,0.283621 -0.33162,0.09381 -0.66676,0.173175 -0.99865,0.264313 -0.10153,3.13e-4 -0.20308,-3.88e-4 -0.30459,3.33e-4 -0.37343,0.0051 -0.74746,0.01546 -1.11851,0.06125 -0.40929,0.05389 -0.81756,0.114192 -1.2237,0.188415 -0.32652,0.05996 -0.65168,0.126899 -0.97635,0.196071 -0.19899,0.03609 -0.39665,0.07825 -0.59122,0.133821 -0.3441,0.09418 -0.69101,0.178502 -1.03361,0.278294 -0.44074,0.122404 -0.88294,0.23956 -1.3279,0.345871 -0.29677,0.06938 -0.59461,0.132058 -0.89414,0.188748 -0.33468,0.06458 -0.6687,0.132746 -1.00532,0.18675 -0.48507,0.09249 -0.9717,0.176887 -1.45338,0.286284 -0.46879,0.111398 -0.94113,0.219029 -1.38914,0.400131 -0.44059,0.207407 -0.83696,0.44681 -1.2207,0.748333 -0.35285,0.275393 -0.69466,0.564355 -1.02165,0.870169 -0.36905,0.342261 -0.74251,0.679862 -1.11383,1.019636 -0.39508,0.2221 -0.79022,0.443951 -1.1851,0.666442 -0.5598,0.296863 -1.09757,0.62993 -1.61616,0.993338 -0.53631,0.388024 -1.04184,0.814582 -1.53361,1.256986 -0.45154,0.403234 -0.89264,0.817193 -1.31858,1.247331 -0.35455,0.365774 -0.70224,0.737928 -1.03861,1.120502 -0.34096,0.386793 -0.66164,0.790694 -0.99001,1.188077 -0.3006,0.376462 -0.60037,0.753365 -0.90346,1.127825 -0.29341,0.357914 -0.58544,0.717143 -0.87116,1.081221 -0.27485,0.334571 -0.52712,0.686378 -0.77763,1.039277 -0.29228,0.405028 -0.54342,0.836513 -0.77829,1.276625 -0.30028,0.571659 -0.52996,1.174047 -0.72636,1.787942 -0.18317,0.615031 -0.31601,1.243721 -0.4564,1.8695 -0.0913,0.448148 -0.19866,0.892221 -0.30525,1.336879 -0.1287,0.520787 -0.25174,1.042747 -0.35818,1.568568 -0.0948,0.487548 -0.17463,0.977631 -0.25701,1.467372 -0.076,0.414053 -0.13185,0.831344 -0.19573,1.247332 -0.0678,0.399092 -0.1208,0.800521 -0.17909,1.201059 -0.0748,0.449092 -0.12833,0.900489 -0.16078,1.354522 -0.0292,0.452048 -0.028,0.904929 -0.017,1.357518 0.0142,0.513589 0.0709,1.024418 0.14579,1.532283 0.0535,0.407515 0.14352,0.805377 0.28995,1.18941 0.0419,0.105574 0.0935,0.203776 0.15179,0.296936 0.024,0.148867 0.0529,0.296807 0.0902,0.443407 0.0971,0.282706 0.21714,0.551592 0.3785,0.803925 0.1765,0.302945 0.34994,0.607817 0.52531,0.911447 0.18697,0.313848 0.36912,0.630326 0.55459,0.945069 0.40544,0.703715 0.78483,1.435301 1.33654,2.038607 0.0585,0.04957 0.11461,0.102133 0.17177,0.153461 0.11343,0.384189 0.22934,0.767815 0.3675,1.143804 0.21798,0.534548 0.47283,1.052416 0.83423,1.506985 0.3299,0.395581 0.69208,0.762623 1.10419,1.073897 0.38538,0.304646 0.78431,0.590979 1.1894,0.868837 0.43585,0.305281 0.8749,0.609133 1.34819,0.854526 0.48464,0.233863 0.98795,0.419939 1.50533,0.565243 0.0813,0.219273 0.19026,0.427685 0.33988,0.615178 0.0844,0.105783 0.18819,0.194682 0.28229,0.291943 0.41027,0.33746 0.89234,0.476965 1.41277,0.484685 0.30106,0.01372 0.56615,-0.06063 0.85086,-0.154128 0.06,-0.03739 0.12402,-0.06942 0.18709,-0.102862 0.0371,0.01787 0.0783,0.03319 0.11984,0.0496 0.001,7.45e-4 0.002,0.0016 0.003,0.0023 0.41705,0.244087 0.85354,0.446933 1.30159,0.627828 0.39956,0.165545 0.80277,0.326304 1.22271,0.433086 0.29445,0.07386 0.5926,0.135325 0.89579,0.159787 0.27346,0.02496 0.54747,0.0453 0.82224,0.04427 0.21437,3.41e-4 0.42904,4.15e-4 0.64315,-0.01232 0.4091,-0.02639 0.81629,-0.07301 1.22269,-0.126498 0.10813,-0.01435 0.21613,-0.02943 0.32424,-0.04394 0.27545,0.05239 0.55319,0.09232 0.83387,0.104861 0.39799,0.0149 0.79665,0.0121 1.19209,-0.04228 0.0851,-0.01217 0.16945,-0.02707 0.25332,-0.04427 0.0426,0.006 0.0851,0.01355 0.12783,0.01731 0.46697,0.04112 0.75298,0.0017 0.92442,-0.127829 0.13835,0.03496 0.3153,0.05541 0.55427,0.06691 0.17149,0.01041 0.34282,-0.0046 0.51397,-0.01332 0.0824,-0.0032 0.16492,-0.0039 0.24735,-0.0043 0.14722,0.0021 0.29467,-0.0052 0.44174,0.003 0.2931,0.01717 0.5858,0.03864 0.87916,0.05226 0.27977,0.0059 0.55929,0.02203 0.83888,0.03262 0.24645,0.0078 0.49229,0.02632 0.73866,0.03662 0.25182,0.0092 0.50373,0.0108 0.75566,0.01165 0.36116,-0.0028 0.71968,-0.05036 1.07557,-0.107856 0.29114,-0.04744 0.57728,-0.118954 0.85985,-0.20273 0.35089,-0.09738 0.66667,-0.268108 0.96337,-0.475696 0.27498,-0.191619 0.48128,-0.409695 0.65513,-0.661783 0.4578,-0.09733 0.91403,-0.20215 1.36117,-0.341542 0.33036,-0.102887 0.66069,-0.209564 0.97703,-0.350865 0.38021,-0.166432 0.76048,-0.333102 1.13348,-0.515309 0.35121,-0.16867 0.70013,-0.341778 1.04893,-0.515312 0.27105,-0.142669 0.54111,-0.288007 0.80161,-0.449399 0.27313,-0.171156 0.53789,-0.354129 0.79227,-0.55226 0.27829,-0.215167 0.54629,-0.442417 0.81125,-0.673767 0.3381,-0.290911 0.67736,-0.580817 1.00598,-0.882485 0.34962,-0.315805 0.69314,-0.638169 1.03528,-0.962047 0.46445,-0.433565 0.93332,-0.862012 1.3968,-1.2966 0.49766,-0.45862 0.99749,-0.914972 1.49001,-1.379155 0.42611,-0.401545 0.85672,-0.79865 1.29393,-1.188078 0.50259,-0.449028 1.00864,-0.894139 1.50066,-1.354855 0.43491,-0.403013 0.87492,-0.801768 1.27962,-1.235681 0.30669,-0.336265 0.61115,-0.67553 0.8845,-1.039942 0.24437,-0.327425 0.48075,-0.661541 0.70006,-1.006319 0.15181,-0.254718 0.30914,-0.506096 0.45672,-0.763314 0.1431,-0.240918 0.28872,-0.48035 0.42942,-0.722701 0.12812,-0.209487 0.25772,-0.418142 0.38981,-0.625162 0.16834,-0.273479 0.33967,-0.545211 0.49001,-0.829225 0.11576,-0.225912 0.22529,-0.454715 0.31992,-0.69041 0.0836,-0.199236 0.16871,-0.398179 0.23668,-0.603527 0.0718,-0.24076 0.13056,-0.484929 0.18575,-0.730023 0.0526,-0.265179 0.0952,-0.531954 0.12616,-0.800595 0.0294,-0.249507 0.0594,-0.498947 0.0806,-0.749332 0.0189,-0.244757 0.0492,-0.488597 0.0719,-0.733019 0.0184,-0.207026 0.0461,-0.413402 0.0796,-0.618506 0.031,-0.206713 0.0627,-0.413157 0.0839,-0.621169 0.024,-0.215444 0.0458,-0.431319 0.0822,-0.645138 0.029,-0.194247 0.0671,-0.387453 0.11086,-0.578892 0.0388,-0.161036 0.0829,-0.320146 0.12748,-0.479692 0.0619,-0.234739 0.13491,-0.466813 0.18742,-0.704058 0.0558,-0.233326 0.11332,-0.466566 0.1508,-0.703725 0.029,-0.170558 0.0684,-0.339556 0.0802,-0.512648 0.0152,-0.141781 0.0315,-0.283344 0.0436,-0.425431 0.0244,-0.253807 0.0366,-0.508615 0.036,-0.763645 -0.007,-0.327028 -0.0256,-0.654274 -0.0799,-0.97736 -0.0741,-0.429036 -0.16499,-0.855408 -0.28828,-1.273297 -0.14479,-0.468822 -0.31015,-0.930888 -0.49501,-1.38548 -0.14477,-0.377016 -0.29066,-0.753491 -0.44474,-1.126826 -0.12723,-0.304831 -0.26241,-0.60615 -0.39247,-0.909784 -0.12597,-0.292949 -0.25317,-0.585716 -0.39348,-0.872166 -0.0938,-0.191539 -0.18472,-0.384382 -0.28528,-0.572568 -0.0796,-0.166586 -0.15988,-0.333007 -0.22237,-0.506988 -0.0779,-0.197215 -0.1621,-0.391879 -0.23801,-0.589878 -0.084,-0.210943 -0.16828,-0.422102 -0.2703,-0.625164 -0.0877,-0.185968 -0.17077,-0.374498 -0.26964,-0.554925 -0.10598,-0.180957 -0.21634,-0.359421 -0.33522,-0.532288 -0.12345,-0.179341 -0.24623,-0.35912 -0.36584,-0.540943 -0.14806,-0.240319 -0.30642,-0.473665 -0.46706,-0.705723 -0.11673,-0.17116 -0.22878,-0.345449 -0.34353,-0.517974 -0.14148,-0.206189 -0.28685,-0.40948 -0.42809,-0.615843 -0.17368,-0.239301 -0.35259,-0.47504 -0.54295,-0.701396 -0.21172,-0.244313 -0.44115,-0.47267 -0.71404,-0.649131 -0.19258,-0.124092 -0.39087,-0.238468 -0.59587,-0.340878 -0.20742,-0.108934 -0.41023,-0.226239 -0.61418,-0.341543 -0.26457,-0.140171 -0.52698,-0.284902 -0.7976,-0.413114 -0.32971,-0.152346 -0.66183,-0.299336 -0.99567,-0.442408 -0.38667,-0.172362 -0.76856,-0.355075 -1.14546,-0.547934 -0.29962,-0.146253 -0.60031,-0.291623 -0.91345,-0.407122 -0.0121,-0.0031 -0.30074,-0.113031 -0.21039,-0.07823 -0.13197,-0.04861 -0.25517,-0.08261 -0.37648,-0.111518 -0.16777,-0.03733 -0.33608,-0.07206 -0.506,-0.0982 -0.15822,-0.02263 -0.31436,-0.05771 -0.47237,-0.08189 -0.0906,-0.01277 -0.18016,-0.03133 -0.26931,-0.0516 -0.16831,-0.04714 -0.33667,-0.09391 -0.50133,-0.153129 -0.30442,-0.118228 -0.60837,-0.237257 -0.91277,-0.355524 -0.36661,-0.14172 -0.73556,-0.277916 -1.10852,-0.402129 -0.41299,-0.142076 -0.82606,-0.286471 -1.24667,-0.404459 -0.28005,-0.07544 -0.55788,-0.158703 -0.83987,-0.226697 -0.18784,-0.04348 -0.37609,-0.08508 -0.56391,-0.128494 -0.28039,-0.05798 -0.56404,-0.09279 -0.85087,-0.09388 z m -24.04384,15.624436 c -5e-5,0.0016 5e-5,0.0031 0,0.0047 -0.004,0.0063 -0.008,0.01266 -0.0127,0.01897 0.004,-0.0079 0.008,-0.01575 0.0127,-0.02363 z"
       inkscape:export-xdpi="19.049999"
       inkscape:export-ydpi="19.049999" />
    <path
       id="path873"
       style="fill:#f9f25d;fill-opacity:1;stroke-width:0.852195"
       d="m 64.086584,55.975122 c -0.008,-0.0013 -0.0164,5e-6 -0.0256,0.0047 -1.0218,0.514466 -1.96447,1.17289 -2.94673,1.759313 0.0942,0.193519 0.19002,0.386181 0.27829,0.582554 0.17295,0.39039 0.3343,0.785824 0.47137,1.190408 0.19394,0.585169 0.37897,1.17325 0.55525,1.763974 0.18326,0.612669 0.37798,1.22697 0.4534,1.864507 0.0399,0.402726 0.0463,0.801699 -0.0293,1.202059 -0.11549,0.754898 -0.25031,1.50682 -0.36851,2.261308 -0.15101,0.982895 -0.26306,1.970388 -0.37483,2.958377 -0.13475,1.033236 -0.27401,2.066965 -0.489,3.087204 -0.2169,1.021893 -0.43704,2.043666 -0.69442,3.056246 -0.21818,0.865948 -0.42934,1.733858 -0.66877,2.594196 -0.13787,0.477536 -0.28039,0.954099 -0.43476,1.426426 -0.1403,-0.064 -0.28352,-0.120649 -0.43141,-0.163115 -0.43469,-0.124809 -0.93392,0.402989 -1.23302,0.69607 -0.4436,0.449932 -0.89228,0.894592 -1.33588,1.344535 -0.54469,0.55558 -1.09398,1.106777 -1.65445,1.646465 -0.67845,0.640183 -1.38049,1.256312 -2.13948,1.800591 -0.94652,0.67574 -1.91926,1.315369 -2.96736,1.825225 -1.14381,0.553387 -2.2985,1.088438 -3.48868,1.535613 -1.36369,0.477102 -2.74817,0.899779 -4.16175,1.20339 -1.42202,0.297263 -2.85125,0.573921 -4.29858,0.715377 -1.15844,0.105617 -2.32019,0.181394 -3.48369,0.196071 -0.76407,0.01422 -1.52803,0.03702 -2.2896,0.104526 -0.58669,0.05408 -1.17252,0.116819 -1.75898,0.173435 -1.0469,0.09888 -2.09386,0.199054 -3.14013,0.304593 -0.0546,0.0063 -0.44999,0.05112 -0.79593,0.09953 -0.0983,-0.03858 -0.19657,-0.07749 -0.29495,-0.115844 -0.0179,-0.007 -0.0664,-0.03415 -0.0546,-0.01897 0.0108,0.01384 0.0275,0.02175 0.0413,0.03262 -0.13265,-0.06539 -0.22861,-0.203497 -0.35686,-0.27796 -0.17378,-0.131989 -0.35259,-0.25697 -0.52596,-0.389479 -0.23636,-0.172958 -0.47946,-0.339064 -0.74468,-0.465378 -0.0513,-0.02667 -0.0578,-0.02888 -0.0726,-0.03562 -0.0108,-0.0068 -0.004,-0.0031 -0.0206,-0.01332 -0.10557,-0.08282 -0.20381,-0.173573 -0.29827,-0.268973 -0.20081,-0.207821 -0.40208,-0.415594 -0.63051,-0.593873 -0.3029,-0.241225 -0.62999,-0.45094 -1.0093,-0.548932 -0.18322,-0.05004 -0.36847,-0.09264 -0.55759,-0.113515 -0.029,-0.0026 -0.0579,-0.0029 -0.0869,-0.005 -0.0317,-0.05073 -0.0629,-0.101811 -0.0952,-0.15213 -1.33058,-2.039111 -4.21404,-0.157296 -2.88346,1.881816 h 0.003 c 0.0979,0.154884 0.19367,0.311333 0.28528,0.470039 0.0334,0.04983 -0.008,-0.0079 0.0852,0.187748 0.17376,0.311327 0.40852,0.631273 0.73435,0.800263 0.14356,0.07446 0.29665,0.128518 0.44507,0.192742 0.32265,0.09441 0.64117,0.0613 0.96737,0.05226 0.005,-0.0015 0.0334,-8e-5 0.0476,-6.67e-4 0.0762,0.07041 0.14835,0.145281 0.22038,0.22004 0.19865,0.204315 0.40979,0.394886 0.63216,0.572901 0.19483,0.160176 0.41321,0.285096 0.63548,0.402462 0.10305,0.04722 0.19999,0.104966 0.28762,0.177096 0.16242,0.126609 0.33342,0.24199 0.49665,0.367508 0.1431,0.110944 0.28401,0.224388 0.42976,0.331889 0.34184,0.240942 0.73436,0.385839 1.1205,0.537282 0.20811,0.07567 0.4111,0.164198 0.61452,0.251331 0.12464,0.05208 0.251,0.09955 0.37849,0.14414 0.13017,0.049 0.29167,0.114739 0.43675,0.168109 0.18876,0.0739 0.38122,0.139114 0.56758,0.219039 0.12013,0.05403 0.23936,0.109466 0.36085,0.160453 0.22774,0.09545 0.46735,0.15731 0.7054,0.220704 0.25318,0.06366 0.50233,0.141006 0.75165,0.218042 0.22552,0.07326 0.45101,0.146687 0.66478,0.25 0.26999,0.150934 0.53881,0.303717 0.81025,0.452061 0.22987,0.123521 0.46381,0.239298 0.69806,0.354194 0.19476,0.09146 0.39211,0.176844 0.59189,0.256657 0.29549,0.116205 0.60666,0.17804 0.91876,0.229025 0.31204,0.04853 0.62596,0.07966 0.94108,0.09854 0.31587,0.01381 0.63166,0.03252 0.9474,0.04927 0.65103,0.03573 1.30225,0.03111 1.95306,-0.003 0.28831,-0.0193 0.5754,-0.05074 0.86184,-0.08655 0.0355,0.01416 0.0522,0.02138 0.0762,0.03063 10e-4,4.04e-4 0.002,9.51e-4 0.003,0.0013 0.13611,0.05375 0.27437,0.09657 0.41643,0.132156 0.16925,0.04703 0.3402,0.08636 0.51266,0.119506 0.18488,0.03648 0.37166,0.06125 0.55858,0.08422 0.24434,0.03915 0.49107,0.05471 0.73802,0.06558 0.31705,0.02038 0.63362,-0.0073 0.94839,-0.04328 0.33391,-0.04458 0.66432,-0.109497 0.99168,-0.188413 0.19865,-0.03338 0.38765,-0.11211 0.58389,-0.153796 0.12466,-0.03304 0.24805,-0.07085 0.37217,-0.105858 0.1712,-0.04797 0.33903,-0.106067 0.50433,-0.171437 0.27081,-0.109689 0.53717,-0.228785 0.80958,-0.334885 0.30144,-0.114973 0.60468,-0.225175 0.90745,-0.33655 0.55703,-0.05775 1.10932,-0.153112 1.65844,-0.261983 0.86054,-0.165769 1.68287,-0.468471 2.492,-0.7976 0.75233,-0.30318 1.47083,-0.680784 2.17011,-1.089876 0.13045,-0.07711 0.25811,-0.158175 0.38447,-0.241344 0.12892,-0.04628 0.25834,-0.09105 0.38649,-0.139481 0.38809,-0.145541 0.77344,-0.298956 1.15846,-0.452393 0.30375,-0.118234 0.60374,-0.245481 0.89979,-0.381824 0.3455,-0.151663 0.67683,-0.331483 1.00099,-0.523966 0.34401,-0.197266 0.65662,-0.441419 0.96738,-0.686082 0.26404,-0.208258 0.51842,-0.427764 0.76997,-0.650797 0.25953,-0.224011 0.51036,-0.457687 0.75665,-0.696068 0.28896,-0.279702 0.56456,-0.572626 0.83821,-0.867173 0.0421,-0.04399 0.0826,-0.08939 0.12417,-0.133822 0.0826,-0.05795 0.16277,-0.119898 0.23934,-0.185418 0.1699,-0.153637 0.33935,-0.307492 0.50466,-0.466043 0.24379,-0.238798 0.47997,-0.485229 0.71971,-0.728027 0.20366,-0.2071 0.41253,-0.408711 0.62517,-0.606522 0.28952,-0.258037 0.53001,-0.559903 0.75298,-0.875496 0.2021,-0.299356 0.38081,-0.613156 0.55759,-0.928091 0.19,-0.257064 0.38354,-0.511773 0.57823,-0.765311 0.21738,-0.279838 0.44152,-0.554522 0.65912,-0.834217 0.22466,-0.288488 0.44643,-0.578965 0.66711,-0.870502 0.22889,-0.306211 0.45346,-0.615703 0.67709,-0.925762 0.24492,-0.34264 0.49465,-0.681578 0.73103,-1.030288 0.25772,-0.385543 0.52024,-0.76826 0.75731,-1.167107 0.19997,-0.332265 0.40053,-0.665805 0.56991,-1.014976 0.13717,-0.286165 0.25835,-0.579098 0.34954,-0.883484 0.10736,-0.350032 0.20437,-0.706641 0.23467,-1.072898 0.0152,-0.245548 0.009,-0.4894 -0.0286,-0.731689 0.0333,-0.07093 0.0678,-0.141339 0.10087,-0.212383 0.29383,-0.636991 0.58636,-1.276107 0.80793,-1.942734 0.12979,-0.415674 0.24863,-0.834558 0.32589,-1.263644 0.0547,-0.286673 0.0951,-0.575301 0.11651,-0.866507 0.0183,-0.272377 0.0205,-0.54463 0.0176,-0.817574 1.6e-4,-0.234161 -6e-5,-0.468235 -0.002,-0.702394 -0.003,-0.227843 -0.006,-0.456331 -0.034,-0.682753 -0.0192,-0.159793 -0.0386,-0.319386 -0.0533,-0.479692 -0.0226,-0.255451 -0.0472,-0.510601 -0.0706,-0.765975 -0.0216,-0.287983 -0.0413,-0.576067 -0.0613,-0.864178 -0.025,-0.276258 -0.0606,-0.551277 -0.11051,-0.824231 -0.0231,-0.14928 -0.0499,-0.292833 -0.0766,-0.439079 -0.0236,-0.107966 -0.0377,-0.218037 -0.0583,-0.326563 -0.0542,-0.322989 -0.11828,-0.644244 -0.19774,-0.962047 -0.076,-0.309321 -0.15967,-0.616337 -0.25233,-0.921101 -0.0579,-0.190284 -0.11877,-0.379479 -0.18442,-0.567242 -0.0811,-0.241878 -0.1627,-0.483913 -0.25167,-0.723033 -0.11927,-0.311644 -0.24269,-0.6213 -0.37082,-0.929423 -0.17714,-0.424877 -0.3521,-0.850942 -0.53828,-1.271966 -0.21641,-0.496047 -0.44713,-0.985609 -0.66945,-1.479022 -0.31161,-0.704186 -0.61082,-1.413749 -0.91343,-2.121828 -0.174,-0.397159 -0.34661,-0.795919 -0.58357,-1.160781 -0.0395,-0.06077 -0.0608,-0.200377 -0.11518,-0.209387 z m -42.35434,35.849386 c 10e-4,2.1e-5 9e-4,-2.2e-5 0.002,0 0.006,7.38e-4 0.0124,0.0021 0.0186,0.0033 0.005,8.37e-4 -0.01,-2.9e-5 -0.0143,0 -0.005,0.0015 -0.014,-7.52e-4 -0.023,-0.003 0.006,1.16e-4 0.0107,-4.5e-4 0.0167,-3.33e-4 z"
       inkscape:export-xdpi="19.049999"
       inkscape:export-ydpi="19.049999" />
    <path
       style="fill:#f9fcd8;fill-opacity:1;stroke-width:0.852196"
       id="path884"
       d="m 57.834724,80.359645 c -0.25278,0.895431 -0.36743,1.821087 -0.45901,2.744504 -0.085,0.97134 -0.0743,1.947987 0.009,2.918673 0.0135,0.124412 0.15703,1.208813 0.30369,1.187744 3.44008,-0.494174 3.37964,0.07011 3.16503,-1.399602 -0.16688,-0.914658 -0.34035,-1.827843 -0.5322,-2.737623 -0.1922,-0.897053 -0.45466,-1.771407 -1.8036,-1.86541 -0.6259,-0.04362 -1.14845,0.533508 -1.64054,0.922738 -0.15557,0.123063 -0.43958,1.012561 -0.50445,1.198545 -0.32667,1.130817 -0.5665,2.284871 -0.80915,3.436062 -0.0282,0.139666 -0.0568,0.279265 -0.0846,0.418996 -0.0376,0.188347 -0.0685,0.37805 -0.11021,0.565531 -0.10594,0.476715 0.49807,-0.949054 0.96039,-1.106343 0.52277,-0.177853 1.09488,0.144575 1.64233,0.216861 0.0395,0.02933 0.12962,0.135943 0.11856,0.08799 -0.02,-0.08651 -0.0991,-0.147344 -0.14919,-0.220659 -0.1997,-0.292362 -0.40404,-0.581482 -0.59786,-0.877815 -0.7627,-1.199036 -1.07617,-1.097994 -3.12886,-0.326924 -0.19026,0.07147 -0.36818,0.917917 -0.42861,1.167442 -0.15227,0.703777 -0.27609,1.413512 -0.38914,2.124546 -0.0311,0.198665 -0.0627,0.397248 -0.0939,0.595905 -0.37741,2.405414 3.02437,2.939122 3.40176,0.533708 v 0 c 0.0308,-0.19647 0.0621,-0.392863 0.0929,-0.589341 0.0999,-0.629064 0.20907,-1.256967 0.34119,-1.880125 0.0164,-0.07465 0.11555,-0.261313 0.0489,-0.223946 -0.10532,0.05905 -0.0759,0.283155 -0.19447,0.305559 -2.93714,0.554664 -1.8901,0.779701 -2.71923,-0.11413 -0.08,-0.08624 0.32976,0.458932 0.19084,0.296839 0.38853,0.590329 0.7779,1.185493 1.24493,1.716989 0.6181,0.133866 1.24158,0.558207 1.85431,0.401599 1.14455,-0.292527 1.18475,-1.518545 1.36933,-2.382668 0.21471,-1.019206 0.42921,-2.039814 0.70244,-3.045191 0.0328,-0.103762 0.073,-0.205453 0.0984,-0.311287 0.004,-0.01567 0.003,-0.05226 -0.0127,-0.04663 -0.47318,0.176179 -0.90684,0.672048 -1.40203,0.573395 -1.37681,-0.274295 -1.59389,-1.889078 -1.36689,-0.861447 0.18599,0.881107 0.35348,1.765639 0.51515,2.651498 0.22287,-1.128991 0.0829,-0.487286 3.24182,-0.878223 0.14662,-0.01815 0.10015,0.278015 0.15124,0.416648 0.003,0.0093 -0.006,-0.01889 -0.008,-0.02858 -0.0195,-0.09 -0.0229,-0.128809 -0.0376,-0.229237 -0.0713,-0.756675 -0.0721,-1.519338 -0.0121,-2.276929 0.0656,-0.682621 0.147,-1.364775 0.31204,-2.031774 0.74097,-2.319356 -2.53909,-3.367239 -3.28006,-1.047882 z"
       inkscape:export-xdpi="19.049999"
       inkscape:export-ydpi="19.049999" />
    <path
       style="fill:#e9b801;fill-opacity:1;stroke-width:0.852196"
       id="path886"
       d="m 32.608484,48.710791 c -1.26202,0.495317 -2.51363,1.016527 -3.77671,1.509611 -0.81863,0.311603 -1.64036,0.615213 -2.42764,1.000809 -0.509,0.248509 -0.95868,0.593254 -1.39676,0.947868 -0.58419,0.461661 -1.11061,0.988375 -1.62419,1.52574 -0.53454,0.586684 -1.01313,1.220548 -1.49101,1.853244 -0.54496,0.744965 -1.06176,1.510375 -1.57892,2.274824 -0.46775,0.723425 -0.98829,1.409959 -1.5023,2.100523 -0.58196,0.773235 -1.13717,1.565924 -1.68518,2.363401 -0.51285,0.72606 -0.97931,1.482987 -1.41026,2.260026 -0.46954,0.842103 -0.83211,1.736548 -1.19733,2.627041 -0.40318,0.968972 -0.7592,1.955115 -1.04914,2.963641 -0.21424,0.758572 -0.32334,1.538339 -0.25661,2.326826 0.0445,0.525379 0.11288,0.714307 0.23932,1.22134 0.28659,0.88296 0.6582,1.73413 0.97304,2.607189 0.34163,1.03013 0.65408,2.070587 1.07808,3.07121 0.10826,0.255501 0.22743,0.506242 0.34115,0.759364 0.63565,1.354257 1.43305,2.622186 2.23246,3.883608 0.56563,0.922324 1.18833,1.806665 1.81979,2.684476 0.51324,0.704928 1.02394,1.420399 1.63415,2.046746 0.14793,0.151852 0.3056,0.293908 0.45841,0.440862 0.80711,0.730645 1.73628,1.304229 2.68332,1.832805 0.78216,0.427391 1.61356,0.744634 2.46715,0.99435 0.083,0.02249 0.16589,0.04541 0.24901,0.06748 0.0593,0.01575 0.11887,0.03074 0.17835,0.04597 0.3975,0.101832 -0.39695,-0.10138 -0.39992,-0.163585 -0.20777,-4.350777 -1.10117,-4.006137 0.50459,-4.49338 -0.0659,-0.0056 -0.13265,0.0055 -0.19828,-0.0024 -0.0982,-0.01195 -0.004,-0.01502 -0.043,-0.05104 -0.0854,-0.07863 -0.1935,-0.128274 -0.28964,-0.193321 -1.00239,-0.726019 -1.92199,-1.557096 -2.83055,-2.395178 -0.77514,-0.701862 -1.48111,-1.473536 -2.18811,-2.242424 -0.47829,-0.456147 -0.78308,-1.020017 -1.08008,-1.599333 -0.33942,-0.660848 -0.63261,-1.342462 -0.88564,-2.040514 -0.24666,-0.71867 -0.48706,-1.439113 -0.69093,-2.171172 -0.23714,-0.867446 -0.37031,-1.758204 -0.47426,-2.649995 -0.0841,-0.797411 -0.1614,-1.59864 -0.13486,-2.401156 0.0419,-0.828539 0.22492,-1.638681 0.444,-2.435846 0.24302,-0.944024 0.72455,-1.784746 1.22292,-2.612177 0.68007,-1.137661 1.43078,-2.2297 2.21081,-3.300455 0.5382,-0.699748 1.05193,-1.430921 1.6992,-2.036431 0.47286,-0.395608 0.99309,-0.731904 1.50426,-1.075496 0.33686,-0.198672 0.63978,-0.459589 0.98413,-0.646066 0.0261,-0.01414 -0.0502,0.0317 -0.0753,0.04754 -1.88616,0.367401 -1.6532,0.685619 -3.39628,-1.437003 -0.18744,-0.228285 -0.0575,-0.588015 -0.0807,-0.882494 -0.002,-0.02881 0.0182,-0.11194 0.005,-0.08661 -0.0338,0.06159 -0.0437,0.133577 -0.0666,0.200006 -0.0316,0.09158 -0.0646,0.182666 -0.0968,0.273999 -0.30436,0.857347 -0.62685,1.708054 -0.94013,2.562155 -0.40655,1.086687 -0.89614,2.139691 -1.38298,3.192044 -0.56759,1.226151 -1.12871,2.455192 -1.66875,3.693747 -0.61457,1.363533 -1.06798,2.786431 -1.43151,4.234707 -0.20647,0.895981 -0.36459,1.806984 -0.40747,2.726889 -0.0279,0.598934 -0.008,0.778653 0.0152,1.372507 0.0731,1.191156 0.307,2.361874 0.57861,3.521111 0.20902,0.950441 0.51324,1.873832 0.84771,2.786274 0.83665,2.150817 0.59509,1.747506 5.02291,-0.26814 0.002,-8.37e-4 -0.24335,-1.174262 -0.28081,-1.353857 -0.31604,-1.843317 -0.3418,-3.731807 -0.17416,-5.592539 0.0405,-0.449752 0.10918,-0.896523 0.1638,-1.344783 0.26327,-1.686553 0.69128,-3.347336 1.32127,-4.935021 0.34086,-0.859004 0.51148,-1.169203 0.91243,-1.989276 0.90215,-1.730724 2.03198,-3.323766 3.19852,-4.882939 1.06297,-1.381448 2.15668,-2.739207 3.25301,-4.094275 0.80433,-1.003023 1.68282,-1.941231 2.6239,-2.81615 0.73079,-0.654679 1.51416,-1.247589 2.35933,-1.7459 0.34564,-0.192661 0.71603,-0.335667 1.09284,-0.454133 -2.79318,-0.01836 -1.3685,0.472408 -2.75802,-3.600663 -0.003,-0.009 0.002,-0.0341 -0.006,-0.02784 -0.10356,0.09059 -0.1951,0.194069 -0.29365,0.290098 -0.35724,0.348152 -0.52056,0.500567 -0.8927,0.853702 -1.15302,1.10562 -2.37391,2.136517 -3.5776,3.185705 -1.79405,1.54959 -3.43606,3.260887 -5.04351,4.999844 -1.73303,1.879422 -3.28956,3.908257 -4.72771,6.019095 -0.83327,1.266074 -1.5417,2.611462 -2.09899,4.021293 -0.3571,0.903404 -0.41127,1.141517 -0.69605,2.064402 -0.35736,1.279902 -0.60369,2.59309 -0.67423,3.92167 -0.0423,0.79705 -0.0157,0.997978 0.0172,1.784749 0.0899,1.551864 0.55688,3.027707 1.10675,4.468638 0.49406,1.301643 1.13669,2.533748 1.83322,3.736176 0.51934,0.887331 1.11649,1.725834 1.69482,2.575091 0.52548,0.755674 1.05885,1.506786 1.62788,2.230465 0.51318,0.67399 1.18248,1.089346 1.94585,1.422853 0.68102,0.298848 1.37175,0.573663 2.06793,0.834954 0.71216,0.261959 1.42955,0.509193 2.16142,0.71014 0.48323,0.132688 0.97612,0.223315 1.46843,0.314152 0.37495,0.06856 0.75315,0.116543 1.13296,0.147338 0.0578,0.0028 0.11563,0.0056 0.17344,0.0084 3.44129,0.119945 3.61091,-4.746778 0.16962,-4.866723 v 0 c 0.0131,0.0012 0.0263,0.0024 0.0394,0.0037 -0.21197,-0.01551 -0.42263,-0.04454 -0.63188,-0.08156 -0.35922,-0.06627 -0.71965,-0.128466 -1.0726,-0.22391 -0.58727,-0.157817 -1.15916,-0.365409 -1.73101,-0.571171 -0.62485,-0.234062 -1.2445,-0.480936 -1.85542,-0.749508 -0.16389,-0.06739 -0.14204,-0.0686 -0.0401,0.02573 0.0297,0.02744 0.16293,0.204982 -0.008,0.0059 -0.50192,-0.629799 -0.9593,-1.294313 -1.4234,-1.952 -0.51231,-0.752127 -1.04258,-1.493977 -1.50718,-2.276947 -0.5682,-0.978432 -1.09824,-1.977382 -1.49944,-3.038164 -0.36901,-0.95409 -0.71125,-1.924773 -0.7888,-2.953662 -0.0281,-0.503794 -0.0485,-0.655708 -0.027,-1.168476 0.0408,-0.977464 0.22104,-1.943392 0.47733,-2.885918 0.21601,-0.717446 0.25354,-0.891556 0.52633,-1.595808 0.43124,-1.11342 0.98455,-2.175295 1.6385,-3.174084 1.29797,-1.914136 2.71077,-3.748747 4.27744,-5.452432 1.48737,-1.611089 3.00538,-3.198216 4.66631,-4.63341 1.25553,-1.094449 2.52803,-2.170842 3.73029,-3.324591 0.45366,-0.430717 0.92378,-0.853343 1.35262,-1.309415 0.15124,-0.160854 0.47165,-0.276118 0.44047,-0.494699 -0.61862,-4.33677 0.0258,-3.796343 -2.69233,-3.876917 -0.72329,0.236574 -1.43196,0.521147 -2.09062,0.906008 -1.13752,0.683939 -2.20648,1.472949 -3.18775,2.368581 -1.1028,1.033329 -2.1417,2.131391 -3.08632,3.312615 -1.13537,1.403619 -2.26845,2.809706 -3.36777,4.241823 -1.34924,1.807167 -2.64856,3.658742 -3.67847,5.671211 -0.49385,1.022929 -0.69215,1.3845 -1.11131,2.460422 -0.75505,1.938154 -1.27028,3.962098 -1.57765,6.018243 -0.0633,0.54708 -0.14269,1.092532 -0.18973,1.641244 -0.197,2.297342 -0.13797,4.626106 0.27602,6.89645 0.0564,0.255676 0.0939,0.516297 0.16933,0.767032 0.0167,0.05558 -0.0469,-0.158548 0.009,-0.173891 5.05522,-1.385523 5.19723,0.34269 4.41011,-1.679104 -0.26815,-0.726955 -0.51395,-1.461825 -0.67791,-2.220461 -0.20408,-0.864818 -0.38798,-1.736452 -0.45425,-2.624564 -0.049,-0.912483 0.0242,-1.816856 0.25298,-2.705094 0.29236,-1.186734 0.66628,-2.349936 1.1702,-3.465544 0.52527,-1.205649 1.07228,-2.401503 1.62441,-3.595064 0.5424,-1.172762 1.08483,-2.347496 1.53508,-3.559539 0.32116,-0.875678 0.65191,-1.747826 0.96341,-2.627027 0.19948,-0.571727 0.6954,-1.913097 0.33791,-2.416092 -1.63667,-2.302726 -1.60284,-1.916882 -3.54315,-1.58447 -0.47757,0.263972 -0.92512,0.576027 -1.3794,0.877801 -0.74651,0.501906 -1.50304,0.999157 -2.16644,1.610305 -0.83727,0.818259 -1.56713,1.733173 -2.25761,2.677582 -0.86423,1.188633 -1.69649,2.400494 -2.45054,3.662786 -0.72457,1.214011 -1.39044,2.464953 -1.7465,3.843628 -0.31437,1.175358 -0.56913,2.370172 -0.61157,3.590638 -0.0195,1.033044 0.0459,2.064047 0.1672,3.090226 0.13671,1.14198 0.31263,2.281682 0.62113,3.391654 0.23965,0.851216 0.5143,1.691367 0.80531,2.526408 0.32591,0.888951 0.69718,1.759654 1.13142,2.601709 0.49782,0.96268 1.05614,1.889149 1.82442,2.665189 0.79779,0.867552 1.59814,1.734514 2.47226,2.526885 1.18616,1.092607 2.38858,2.183928 3.74731,3.060958 0.24548,0.130544 0.48318,0.276929 0.73645,0.391629 0.91386,0.413866 1.90598,0.557643 2.89771,0.425005 0.18776,-0.03913 0.51986,0.06941 0.56327,-0.117411 0.90339,-3.88765 1.73461,-4.260743 -0.46234,-4.833353 -0.50468,-0.142945 -0.99526,-0.326704 -1.45863,-0.575269 -0.59665,-0.327451 -1.18577,-0.679914 -1.70716,-1.12015 -0.5786,-0.517237 -1.02357,-1.159644 -1.47672,-1.784986 -0.57587,-0.800543 -1.14556,-1.605804 -1.65995,-2.44796 -0.67812,-1.069454 -1.36066,-2.140841 -1.90903,-3.284516 -0.22986,-0.502751 -0.29164,-0.615837 -0.48754,-1.131839 -0.29287,-0.771358 -0.51532,-1.56686 -0.78806,-2.345148 -0.26994,-0.746194 -0.56511,-1.48185 -0.8516,-2.221616 -0.0321,-0.088 -0.0874,-0.201359 -0.10345,-0.293376 -0.038,-0.217711 0.0712,-0.442706 0.1026,-0.651491 0.23517,-0.836118 0.54145,-1.648276 0.87176,-2.451277 0.29365,-0.717101 0.57905,-1.440446 0.95441,-2.119919 0.35127,-0.640205 0.73982,-1.259272 1.16079,-1.85609 0.51319,-0.746929 1.0327,-1.489672 1.57804,-2.213645 0.55783,-0.749501 1.12094,-1.49589 1.62982,-2.280163 0.46942,-0.694474 0.93927,-1.389281 1.43112,-2.068099 0.36563,-0.484267 0.73028,-0.970085 1.12943,-1.427614 0.36999,-0.389356 0.74656,-0.774034 1.17005,-1.106244 0.15472,-0.126367 0.30679,-0.260948 0.48073,-0.360417 0.65911,-0.329336 1.3617,-0.558181 2.04452,-0.831876 1.20062,-0.468905 2.3935,-0.956626 3.58813,-1.440424 3.25645,-1.119101 1.67379,-5.724422 -1.58266,-4.605322 z"
       inkscape:export-xdpi="19.049999"
       inkscape:export-ydpi="19.049999" />
    <path
       style="fill:#000000;stroke-width:0.268815"
       d="m 34.943054,98.413082 c -3.09057,-0.380174 -5.33521,-1.015823 -7.96236,-2.2548 -5.14486,-2.426358 -7.79156,-5.255651 -11.03496,-11.796271 -2.26795,-4.573558 -2.79703,-6.498629 -2.80436,-10.203639 -0.0269,-13.621309 13.21199,-26.818319 28.75857,-28.667591 7.29981,-0.868316 14.39081,1.152049 18.93365,5.394563 3.16397,2.954797 6.78479,9.235968 7.96008,13.808626 1.07952,4.200038 0.66028,9.555815 -1.09418,13.97839 -3.01183,7.592083 -9.57045,14.073521 -17.65215,17.44439 -4.43645,1.85044 -10.82875,2.822271 -15.10429,2.296332 z m 0.77413,-1.179596 c 0,-0.06684 -0.54241,-0.897467 -1.20537,-1.845838 -1.27134,-1.818656 -1.74178,-2.054005 -4.12156,-2.061901 l -0.89149,-0.003 1.28036,1.629692 c 0.70421,0.896332 1.37568,1.688605 1.49219,1.76061 0.49651,0.306861 3.44587,0.752274 3.44587,0.520396 z m 3.56879,-0.21449 c -0.14325,-0.18481 -0.76672,-1.031579 -1.38547,-1.881707 -0.94495,-1.298288 -1.25632,-1.545687 -1.94538,-1.545687 -0.97206,0 -0.97569,-0.01336 0.56851,2.095635 1.06284,1.451577 1.31971,1.653057 2.11623,1.659942 0.68563,0.0059 0.84309,-0.07406 0.64611,-0.328183 z M 43.583394,96.861 c 0.4115,-0.162781 0.29468,-0.42529 -0.88885,-1.997221 -1.03022,-1.36831 -1.52287,-1.809808 -2.01947,-1.809808 -0.36127,0 -0.65685,0.06194 -0.65685,0.137631 0,0.372909 2.5377,3.892082 2.7948,3.875703 0.16312,-0.01037 0.50978,-0.103228 0.77037,-0.206305 z m 3.82027,-1.007659 c 2.10931,-0.688919 5.78651,-2.397437 5.78651,-2.688547 0,-0.172311 -2.17665,-3.874234 -2.27798,-3.874234 -0.0364,0 -1.08106,0.466595 -2.32148,1.036879 -1.24043,0.570283 -2.71021,1.184913 -3.26618,1.365847 l -1.01086,0.328968 0.49635,0.717471 c 0.90968,1.31492 0.90256,1.535526 -0.016,0.49769 -0.79172,-0.89447 -1.00993,-1.001864 -1.69958,-0.836484 -0.43517,0.10436 -0.8793,0.239002 -0.98693,0.299205 -0.27659,0.154689 2.45472,3.848434 2.84568,3.848434 0.17705,0 1.27979,-0.312854 2.45053,-0.695229 z m -1.44451,-0.997092 c -0.34003,-0.566209 -0.33431,-0.571937 0.12858,-0.128583 0.26646,0.255217 0.4266,0.521889 0.35588,0.592609 -0.0707,0.07072 -0.28873,-0.138091 -0.48446,-0.464026 z m -20.23401,-1.610267 c -0.74978,-0.945676 -1.83319,-1.864686 -3.04549,-2.583341 -1.03494,-0.613514 -2.18336,-1.324426 -2.55206,-1.5798 -0.9874,-0.683939 1.45551,2.165894 2.80349,3.270461 1.3486,1.105073 3.70346,2.614911 3.84995,2.46842 0.0593,-0.05934 -0.41582,-0.768418 -1.05589,-1.57574 z m 28.67398,-1.974166 -0.45873,-0.771588 0.68314,0.789531 0.68315,0.78953 2.04359,-1.565261 c 4.50545,-3.450901 8.14217,-8.496718 9.83035,-13.639257 l 0.58032,-1.767766 -0.76662,-2.045025 c -0.42164,-1.124766 -0.83798,-2.046338 -0.9252,-2.04794 -0.0872,-0.0016 -0.30688,0.450712 -0.48812,1.005143 -0.27684,0.846836 -0.25971,1.173927 0.10712,2.045171 0.24018,0.57041 0.38116,1.092623 0.31331,1.160475 -0.0679,0.06785 -0.27174,-0.326213 -0.45309,-0.875695 l -0.32972,-0.99906 -1.2094,2.336072 c -0.66518,1.28484 -1.26358,2.281904 -1.32979,2.215698 -0.0662,-0.0662 0.0872,-0.521674 0.34079,-1.012151 0.85927,-1.661668 2.24036,-6.168912 2.55993,-8.354487 0.36695,-2.509566 0.17285,-6.330889 -0.44136,-8.68901 -2.12308,-8.151024 -9.82802,-13.373745 -19.74426,-13.383461 -7.28674,-0.0071 -14.23707,2.537431 -20.4321,7.480348 -6.1801,4.931001 -10.6049,13.023399 -10.72889,19.621789 -0.17274,9.192632 5.46994,16.120561 15.03208,18.455965 1.96767,0.480575 9.97985,0.466376 12.4999,-0.02215 2.25358,-0.436867 6.59672,-1.909687 8.85319,-3.002237 0.89683,-0.434232 1.36277,-0.594299 1.03539,-0.35571 l -0.59521,0.433803 1.36342,2.020493 c 1.36208,2.01852 1.36394,2.019968 1.89947,1.48443 0.51302,-0.51301 0.51634,-0.569241 0.0773,-1.307649 z m -22.98298,-1.897873 c -1.18188,-0.197347 -3.59496,-0.89406 -4.70426,-1.358232 -1.05564,-0.441711 -4.43546,-2.446296 -4.43546,-2.630685 0,-0.05166 1.05847,0.441718 2.35214,1.096394 3.58151,1.812458 5.12057,2.139069 10.01337,2.124967 4.77688,-0.01377 6.79252,-0.42112 10.94753,-2.212446 3.54522,-1.528426 6.21851,-3.289193 8.97173,-5.909232 3.71904,-3.539146 6.34195,-7.89093 7.3608,-12.212553 0.52168,-2.212803 0.5172,-6.136848 -0.009,-8.158769 -1.12331,-4.313817 -4.94469,-7.793751 -10.46981,-9.534331 -2.58529,-0.814442 -7.4609,-1.016017 -10.74342,-0.444171 -1.32558,0.230929 -2.45024,0.379766 -2.49926,0.330748 -0.049,-0.04902 0.79361,-0.313605 1.87251,-0.58797 1.42401,-0.362128 2.9194,-0.49718 5.45623,-0.492761 3.87497,0.0067 5.80582,0.393864 8.70394,1.745063 0.94311,0.439708 1.57644,0.632809 1.40738,0.429113 -0.41202,-0.496457 -3.27808,-1.775995 -5.27265,-2.35395 -2.03309,-0.589121 -1.44313,-0.650007 0.76765,-0.07923 2.62003,0.676442 5.66643,2.407585 7.52973,4.278837 4.92738,4.948397 5.78836,12.61556 2.21895,19.760147 -4.13758,8.28183 -12.45068,14.334149 -21.92114,15.959587 -2.33539,0.400827 -5.92879,0.519614 -7.54665,0.249468 z m 25.53744,-5.056464 c 0.80307,-0.813166 1.52061,-1.478484 1.59453,-1.478484 0.074,0 -0.52264,0.665318 -1.32571,1.478484 -0.80307,0.813166 -1.5206,1.478483 -1.59453,1.478483 -0.074,0 0.52265,-0.665317 1.32571,-1.478483 z M 18.026724,79.83069 c -0.32393,-0.524136 -0.57906,-1.301596 -0.56695,-1.727689 0.0195,-0.686885 0.0969,-0.610652 0.6825,0.672387 0.78832,1.727218 0.71478,2.39881 -0.11555,1.055302 z m -1.36852,-4.536585 c -0.6369,-2.653017 0.28887,-7.366083 2.186,-11.128906 2.49426,-4.947164 6.79388,-9.20144 12.30312,-12.17336 1.10887,-0.598168 2.31853,-1.166063 2.68816,-1.261988 0.36962,-0.09593 -0.29902,0.345488 -1.48585,0.98092 -5.98789,3.205908 -10.24541,7.430685 -12.90731,12.80801 -1.76016,3.555724 -2.03655,4.621833 -2.24065,8.642868 l -0.18419,3.629005 z m 1.35904,-2.132456 c -0.0125,-0.961015 0.1623,-2.4731 0.38839,-3.36019 0.22612,-0.88709 0.50511,-1.977732 0.61997,-2.423649 0.28372,-1.101307 2.06497,-4.613661 2.94105,-5.799279 1.56196,-2.113848 2.93833,-3.589615 4.4764,-4.79973 2.07748,-1.634485 2.7641,-2.006169 1.217,-0.658789 -4.06156,3.537252 -7.29362,8.238858 -8.49217,12.353425 -0.25583,0.87826 -0.61427,2.685538 -0.79654,4.016173 l -0.33139,2.419337 -0.0227,-1.747298 z m 50.21891,-5.392226 c -0.24659,-2.185002 -0.82704,-4.594791 -1.26819,-5.265007 -0.11144,-0.169315 -0.19888,1.463738 -0.19429,3.629006 0.007,3.540264 0.0743,4.099331 0.66329,5.549743 l 0.65496,1.612891 0.20195,-1.612891 c 0.11105,-0.88709 0.0851,-2.648274 -0.0577,-3.913742 z"
       id="path857"
       sodipodi:nodetypes="ssssssssssssscssssssssssssssssssssscsssssssssssssssssccccsscsssssscsssssssssssscssscsssssssscsssssssssssssssssssssssssssssscsssssssssccssscscsss"
       inkscape:export-xdpi="19.049999"
       inkscape:export-ydpi="19.049999" />
    <text
       xml:space="preserve"
       style="font-style:normal;font-weight:normal;font-size:10.5833px;line-height:1.25;font-family:sans-serif;fill:#000000;fill-opacity:1;stroke:none;stroke-width:0.264583"
       x="286.23666"
       y="3.85536"
       id="text944"><tspan
         sodipodi:role="line"
         id="tspan942"
         x="286.23666"
         y="3.85536"
         style="stroke-width:0.264583">175x63</tspan></text>
    <path
       style="fill:#e9b801;fill-opacity:1;stroke-width:1.32292"
       id="path950"
       d="m 275.18316,-3.53137 c -3.375,-1.513308 -6.98831,-2.623431 -10.68327,-2.985513 -1.01915,-0.09987 -2.04639,-0.08268 -3.06959,-0.124018 -7.15579,0.322588 -13.23213,4.087704 -19.03322,7.931422 -3.76629,2.601016 -7.30946,5.510194 -10.69708,8.584235 -0.72017,0.660257 -0.39394,0.365302 -0.9765,0.887327 -2.81411,2.523358 0.75446,6.503123 3.56857,3.979768 v 0 c 0.6201,-0.556348 0.2857,-0.25354 1.00171,-0.910093 3.18535,-2.895669 6.52039,-5.632966 10.05941,-8.087632 4.85185,-3.226578 9.92716,-6.57015503 15.89476,-7.042748 0.81042,0.02125 1.6238,-0.0088 2.43123,0.06375 3.20001,0.28762397 6.3327,1.24388597 9.25301,2.551833 3.42829,1.591683 5.67926,-3.256646 2.25097,-4.848329 z" />
    <path
       style="fill:#e9b801;fill-opacity:1;stroke-width:1.32292"
       id="path952"
       d="m 231.02523,-1.505394 c -2.15085,3.161503 -4.24661,6.360178 -6.29118,9.591355 -1.09265,1.675735 -2.10569,3.385719 -2.9282,5.209196 -0.48614,0.98739 -0.76988,2.024528 -0.88521,3.115132 -0.23159,4.294627 4.3225,3.623351 7.03313,3.439901 0.96541,-0.06534 1.92936,-0.150486 2.89406,-0.225729 4.57351,-0.383747 9.12656,-0.957925 13.67547,-1.559058 3.74716,-0.495311 3.04667,-5.794607 -0.70049,-5.299297 v 0 c -4.4546,0.588973 -8.91312,1.152351 -13.39178,1.529239 -6.45639,0.50641 0.32121,-0.0069 -4.78956,0.335986 -0.2675,0.01794 -0.88271,-0.184742 -0.80114,0.07062 0.2126,0.665369 0.97756,1.014256 1.33874,1.612122 0.041,0.0679 0.078,1.037238 0.0614,0.618522 0.0412,-0.515753 0.19928,-0.975781 0.43947,-1.442739 0.71686,-1.595263 1.61864,-3.078832 2.57141,-4.545973 2.0008,-3.16294 4.0527,-6.293429 6.15651,-9.388877 2.16403,-3.098964 -2.21856,-6.159362 -4.38259,-3.060398 z" />
    <rect
       style="fill:#f9f9f9;fill-opacity:1;stroke-width:1.32292"
       id="rect954"
       width="95.77626"
       height="95.77626"
       x="41.273323"
       y="173.3942"
       inkscape:export-filename="background.png"
       inkscape:export-xdpi="66.300003"
       inkscape:export-ydpi="66.300003" />
    <path
       sodipodi:type="star"
       style="fill:#ececec;fill-opacity:1;stroke-width:0.98863"
       id="path956"
       sodipodi:sides="4"
       sodipodi:cx="89.022423"
       sodipodi:cy="221.14328"
       sodipodi:r1="16.503021"
       sodipodi:r2="8.317523"
       sodipodi:arg1="0.78539816"
       sodipodi:arg2="1.5707963"
       inkscape:flatsided="false"
       inkscape:rounded="0"
       inkscape:randomized="0"
       d="m 100.69182,232.81268 -11.669397,-3.35188 -11.669398,3.35188 3.351875,-11.6694 -3.351875,-11.6694 11.669398,3.35188 11.669397,-3.35188 -3.351874,11.6694 z"
       inkscape:transform-center-x="-0.41116058"
       inkscape:transform-center-y="0.41116617"
       inkscape:export-filename="background.png"
       inkscape:export-xdpi="66.300003"
       inkscape:export-ydpi="66.300003" />
    <text
       xml:space="preserve"
       style="font-style:normal;font-weight:normal;font-size:10.5833px;line-height:1.25;font-family:sans-serif;fill:#000000;fill-opacity:1;stroke:none;stroke-width:0.264583"
       x="286.23666"
       y="16.158018"
       id="text962"><tspan
         sodipodi:role="line"
         id="tspan960"
         x="286.23666"
         y="16.158018"
         style="stroke-width:0.264583">token_holder.png</tspan><tspan
         sodipodi:role="line"
         x="286.23666"
         y="29.387142"
         style="stroke-width:0.264583"
         id="tspan964" /></text>
    <text
       xml:space="preserve"
       style="font-style:normal;font-weight:normal;font-size:10.5833px;line-height:1.25;font-family:sans-serif;fill:#000000;fill-opacity:1;stroke:none;stroke-width:0.264583"
       x="229.33907"
       y="163.45534"
       id="text968"><tspan
         sodipodi:role="line"
         id="tspan966"
         x="229.33907"
         y="163.45534"
         style="stroke-width:0.264583">250x250</tspan></text>
    <path
       style="fill:#e9b801;fill-opacity:1;stroke-width:1.32292"
       id="path970"
       d="m 218.28556,156.06862 c -3.375,-1.51331 -6.98831,-2.62344 -10.68327,-2.98552 -1.01915,-0.0999 -2.04639,-0.0827 -3.06959,-0.12402 -7.15579,0.32259 -13.23213,4.08771 -19.03322,7.93143 -3.76629,2.60101 -7.30946,5.51019 -10.69708,8.58423 -0.72017,0.66026 -0.39394,0.3653 -0.9765,0.88733 -2.81411,2.52336 0.75446,6.50312 3.56857,3.97977 v 0 c 0.6201,-0.55635 0.2857,-0.25354 1.00171,-0.9101 3.18535,-2.89567 6.52039,-5.63296 10.05941,-8.08763 4.85185,-3.22658 9.92716,-6.57015 15.89476,-7.04275 0.81042,0.0213 1.6238,-0.009 2.43123,0.0637 3.20001,0.28763 6.3327,1.24389 9.25301,2.55184 3.42829,1.59168 5.67926,-3.25665 2.25097,-4.84833 z" />
    <path
       style="fill:#e9b801;fill-opacity:1;stroke-width:1.32292"
       id="path972"
       d="m 174.12763,158.09459 c -2.15085,3.1615 -4.24661,6.36018 -6.29118,9.59136 -1.09265,1.67573 -2.10569,3.38572 -2.9282,5.20919 -0.48614,0.98739 -0.76988,2.02453 -0.88521,3.11513 -0.23159,4.29463 4.3225,3.62336 7.03313,3.43991 0.96541,-0.0653 1.92936,-0.15049 2.89406,-0.22573 4.57351,-0.38375 9.12656,-0.95793 13.67547,-1.55906 3.74716,-0.49531 3.04667,-5.79461 -0.70049,-5.2993 v 0 c -4.4546,0.58897 -8.91312,1.15235 -13.39178,1.52924 -6.45639,0.50641 0.32121,-0.007 -4.78956,0.33599 -0.2675,0.0179 -0.88271,-0.18475 -0.80114,0.0706 0.2126,0.66537 0.97756,1.01425 1.33874,1.61212 0.041,0.0679 0.078,1.03724 0.0614,0.61852 0.0412,-0.51575 0.19928,-0.97578 0.43947,-1.44274 0.71686,-1.59526 1.61864,-3.07883 2.57141,-4.54597 2.0008,-3.16294 4.0527,-6.29343 6.15651,-9.38888 2.16403,-3.09896 -2.21856,-6.15936 -4.38259,-3.0604 z" />
    <text
       xml:space="preserve"
       style="font-style:normal;font-weight:normal;font-size:10.5833px;line-height:1.25;font-family:sans-serif;fill:#000000;fill-opacity:1;stroke:none;stroke-width:0.264583"
       x="229.33907"
       y="175.758"
       id="text978"><tspan
         sodipodi:role="line"
         x="229.33907"
         y="175.758"
         style="stroke-width:0.264583"
         id="tspan980">backgrounds.png</tspan><tspan
         sodipodi:role="line"
         x="229.33907"
         y="188.98712"
         style="stroke-width:0.264583"
         id="tspan976" /></text>
    <text
       xml:space="preserve"
       style="font-style:normal;font-weight:normal;font-size:10.5833px;line-height:1.25;font-family:sans-serif;fill:#000000;fill-opacity:1;stroke:none;stroke-width:0.264583"
       x="97.339951"
       y="221.14328"
       id="text986"><tspan
         sodipodi:role="line"
         id="tspan984"
         x="97.339951"
         y="221.14328"
         style="stroke-width:0.264583" /></text>
  </g>
</svg>
